<?xml version="1.0" encoding="UTF-8"?>
<svg xmlns="http://www.w3.org/2000/svg" xmlns:xlink="http://www.w3.org/1999/xlink" width="333" height="80" viewBox="0 0 333 80">
  <defs>
    <clipPath id="clip-path">
      <path id="Pfad_81" data-name="Pfad 81" d="M417.047,77.847,415,67.315a.252.252,0,0,0-.484,0l-2.607,10.794a.252.252,0,0,1-.24.187h-7.017a.252.252,0,0,1-.252-.31l6.608-24.709a.252.252,0,0,1,.24-.187h6.821a.252.252,0,0,1,.252.2L421.346,66.8a.252.252,0,0,0,.459.071l7.864-13.658a.252.252,0,0,1,.214-.126h6.808a.252.252,0,0,1,.252.27l-2.086,24.71a.252.252,0,0,1-.252.227h-7.035a.252.252,0,0,1-.252-.27l.915-10.6a.252.252,0,0,0-.464-.144l-5.633,10.64a.252.252,0,0,1-.217.126h-4.629a.252.252,0,0,1-.252-.2" transform="translate(-404.393 -53.09)" fill="none"></path>
    </clipPath>
    <clipPath id="clip-path-2">
      <rect id="Rechteck_161" data-name="Rechteck 161" width="571.094" height="312.148" fill="none"></rect>
    </clipPath>
    <clipPath id="clip-path-3">
      <path id="Pfad_82" data-name="Pfad 82" d="M530.483,77.929l13.9-24.709a.252.252,0,0,1,.217-.129h6.351a.252.252,0,0,1,.252.2L556.678,78a.252.252,0,0,1-.252.3H548.9a.252.252,0,0,1-.252-.194l-.849-3.825a.252.252,0,0,0-.252-.194h-7.124a.252.252,0,0,0-.219.134l-2.05,3.946a.252.252,0,0,1-.219.134H530.7a.252.252,0,0,1-.217-.368m12.485-9.753H547.3a.252.252,0,0,0,.252-.287l-1-6.094a.252.252,0,0,0-.464-.081l-3.338,6.095a.252.252,0,0,0,.217.368" transform="translate(-530.458 -53.091)" fill="none"></path>
    </clipPath>
    <clipPath id="clip-path-5">
      <path id="Pfad_83" data-name="Pfad 83" d="M640.231,78.26h-7.564a.252.252,0,0,1-.252-.282l.1-.688a.251.251,0,0,1,.058-.129l10.539-12.1a.252.252,0,0,0,.043-.277L637.18,54.169a.251.251,0,0,1-.028-.164l.129-.756a.252.252,0,0,1,.252-.207h7.68a.252.252,0,0,1,.217.131l3.177,5.91a.252.252,0,0,0,.4.048l5.348-5.993a.253.253,0,0,1,.187-.083h7.627a.252.252,0,0,1,.252.293l-.118.681a.251.251,0,0,1-.061.126l-9.75,10.653a.252.252,0,0,0-.038.282l6.192,12.059a.264.264,0,0,1,.025.146l-.1.756a.252.252,0,0,1-.252.214H650.73a.253.253,0,0,1-.222-.134L646.933,71.1a.252.252,0,0,0-.408-.048l-6.1,7.123a.252.252,0,0,1-.187.086" transform="translate(-632.413 -53.042)" fill="none"></path>
    </clipPath>
    <clipPath id="clip-Logo_oM-ERP_blau">
      <rect width="333" height="80"></rect>
    </clipPath>
  </defs>
  <g id="Logo_oM-ERP_blau" clip-path="url(#clip-Logo_oM-ERP_blau)">
    <g id="OM_erp_blau">
      <g id="Gruppe_7823" data-name="Gruppe 7823" transform="translate(0 0)">
        <path id="Vereinigungsmenge_30" data-name="Vereinigungsmenge 30" d="M32.035,51.568h-.061a4.162,4.162,0,0,1-.705-.056,21.094,21.094,0,0,1-7.558-3.03L23.3,48.23c-.508-.293-3.383-1.926-6.609-3.758-3.52-2-7.453-4.233-9.2-5.229-.149-.085-.359-.193-.607-.322-2.3-1.195-4.637-2.524-5.758-4.466C-.127,32.286-.039,29.039.039,27.9.044,26.208.1,5.937.1,4.112A4.072,4.072,0,0,1,1.273,1.138,3.977,3.977,0,0,1,4.111,0h0A7.7,7.7,0,0,1,7.935,1.322C15,5.332,28.67,13.069,30.408,13.986a12.622,12.622,0,0,1,1.82,1.169,12.621,12.621,0,0,1,1.82-1.169c1.737-.918,15.405-8.655,22.473-12.666A7.712,7.712,0,0,1,60.345,0a3.974,3.974,0,0,1,4.01,4.113c0,1.825.057,22.095.062,23.792.077,1.136.165,4.382-1.087,6.551-1.121,1.943-3.46,3.271-5.758,4.466-.248.129-.459.237-.607.322-1.741.995-5.669,3.225-9.186,5.223-3.23,1.835-6.113,3.472-6.62,3.764l-.415.253A22.025,22.025,0,0,1,32.8,51.515a4.381,4.381,0,0,1-.7.054Zm5.064-31.8a4.947,4.947,0,0,0-1.605,1.277V44c.5-.279,1.1-.631,1.823-1.075l.575-.348c.51-.295,3.411-1.942,6.66-3.787,3.512-1.994,7.432-4.221,9.17-5.214.206-.117.494-.269.836-.447a14.445,14.445,0,0,0,3.15-1.994,9.806,9.806,0,0,0,.184-2.853l-.01-.242S57.846,14.96,57.829,8.09C52.6,11.053,38.965,18.777,37.1,19.764ZM6.571,28.035l-.01.242A8.586,8.586,0,0,0,6.8,31.211a15.948,15.948,0,0,0,3.1,1.912c.342.178.631.329.836.447,1.74.995,5.668,3.225,9.182,5.221,3.245,1.843,6.139,3.487,6.649,3.781l.575.348c.72.444,1.321.8,1.822,1.074V21.04a4.942,4.942,0,0,0-1.605-1.277c-1.866-.986-15.5-8.711-20.73-11.674C6.609,14.961,6.571,28.035,6.571,28.035Z" transform="translate(0 28.431)" fill="#1f2e55"></path>
        <path id="Pfad_18613" data-name="Pfad 18613" d="M21.948,15.277l-.591,7.429L0,7.407S.56.308.578,0C.873.209,21.948,15.277,21.948,15.277Z" transform="translate(55.359 23.419) rotate(115)" fill="#4277fc"></path>
        <path id="Pfad_18614" data-name="Pfad 18614" d="M15.793,10.906l-.564,7.33L0,7.282S.585.512.609,0C.9.2,15.793,10.906,15.793,10.906Z" transform="translate(38.948 21.604) rotate(115)" fill="#4277fc"></path>
        <path id="Pfad_18615" data-name="Pfad 18615" d="M25.262,17.243l-.456,7.33S6.2,11.758,4.771,10.751c-1.094-.771-2.781-1.89-3-2.1A5.53,5.53,0,0,1,.006,5.028,46.255,46.255,0,0,1,.284,0C.838.442,25.262,17.243,25.262,17.243Z" transform="translate(39.409 10.763) rotate(115.976)" fill="#4277fc"></path>
      </g>
      <g id="Gruppe_7831" data-name="Gruppe 7831" transform="translate(88.817 27.858)">
        <g id="Gruppe_7824" data-name="Gruppe 7824">
          <path id="Pfad_18606" data-name="Pfad 18606" d="M14.849-89.776c-.981,5.306,1.962,10.429,8.613,10.429A12.853,12.853,0,0,0,35.927-89.776c.982-5.306-1.926-10.466-8.576-10.466A12.858,12.858,0,0,0,14.886-89.812Zm3.779,0a8.491,8.491,0,0,1,8.067-6.9c3.779,0,6.214,2.944,5.451,6.9a8.422,8.422,0,0,1-8.031,6.9c-3.779,0-6.214-2.944-5.487-6.868Zm19.332,9.884H41.74L43.7-90.575c.763-3.925,2.98-5.887,6.541-5.887H50.5l.69-3.779a7.661,7.661,0,0,0-6.541,3.489l.545-2.907h-3.56ZM72.956-99.66H69.176l-.618,3.343c-.69-2.18-3.089-3.925-6.395-3.925A12.7,12.7,0,0,0,49.99-89.7C48.9-83.816,52.352-79.31,58.275-79.31a9.654,9.654,0,0,0,7.886-4.07l-.4,2.035a8.319,8.319,0,0,1-7.995,6.868,5.466,5.466,0,0,1-3.2-1.054,4.667,4.667,0,0,1-1.781-2.29H48.427c.363,3.307,3.016,6.578,8.612,6.578a13.416,13.416,0,0,0,8.976-3.6,12.69,12.69,0,0,0,3.707-7.341ZM53.8-89.812a8.386,8.386,0,0,1,8.1-6.868,5.165,5.165,0,0,1,4.76,2.326,6.757,6.757,0,0,1,.727,4.688,8.845,8.845,0,0,1-2.834,4.833,7.935,7.935,0,0,1-5.233,2c-4.179,0-6.214-3.234-5.56-6.941ZM97.993-99.66H94.214l-.654,3.489c-.545-1.89-2.653-4.07-6.578-4.07a12.671,12.671,0,0,0-12.1,10.466c-1.017,5.524,1.854,10.466,8.213,10.466a9.884,9.884,0,0,0,8.1-4.034l-.654,3.452h3.779ZM78.661-89.74A8.518,8.518,0,0,1,86.8-96.717c3.162,0,5.051,1.781,5.56,4.07A6.182,6.182,0,0,1,92.4-89.7a8.345,8.345,0,0,1-1.236,2.944,8.049,8.049,0,0,1-6.868,3.925c-4.8,0-6.141-3.925-5.633-6.868Z" transform="translate(-14.665 105.087)" fill="#1f2e55"></path>
          <g id="orgaMAX_Logo_blau_blau" transform="translate(85.655 0)">
            <g id="Gruppe_263" data-name="Gruppe 263" transform="translate(0 0.012)" clip-path="url(#clip-path)">
              <g id="Gruppe_262" data-name="Gruppe 262" transform="translate(-283.395 -134.65)" clip-path="url(#clip-path-2)">
                <rect id="Rechteck_160" data-name="Rechteck 160" width="35.047" height="27.735" transform="translate(282.143 133.382)" fill="#4277fc"></rect>
              </g>
            </g>
            <g id="Gruppe_265" data-name="Gruppe 265" transform="translate(31.786 0.012)" clip-path="url(#clip-path-3)">
              <g id="Gruppe_264" data-name="Gruppe 264" transform="translate(-315.18 -134.65)" clip-path="url(#clip-path-2)">
                <rect id="Rechteck_162" data-name="Rechteck 162" width="28.744" height="27.735" transform="translate(313.913 133.382)" fill="#4277fc"></rect>
              </g>
            </g>
            <g id="Gruppe_267" data-name="Gruppe 267" transform="translate(57.492 0)" clip-path="url(#clip-path-5)">
              <g id="Gruppe_266" data-name="Gruppe 266" transform="translate(-340.887 -134.638)" clip-path="url(#clip-path-2)">
                <rect id="Rechteck_164" data-name="Rechteck 164" width="32.526" height="27.735" transform="translate(339.631 133.382)" fill="#4277fc"></rect>
              </g>
            </g>
          </g>
        </g>
        <path id="Pfad_18737" data-name="Pfad 18737" d="M11.892-98.787H25.97l.646-3.536H16.551l1.394-7.446h9.929l.646-3.5H18.591l1.326-7.141H29.982l.646-3.536H16.551Zm18.125,0h4.013l4.013-21.627h3.435c1.8,0,3.162.136,4.115.816a4.2,4.2,0,0,1,1.36,4.251,6.693,6.693,0,0,1-2.482,4.114c-1.394,1.02-3.5,1.088-5.238,1.088h-.884l4.8,11.358h4.251l-4.182-9.351a8.518,8.518,0,0,0,5.373-2.754,10.361,10.361,0,0,0,2.312-4.795c.51-2.822-.238-5.441-2.074-6.8-1.156-.918-3.094-1.462-7.039-1.462H34.675ZM55.384-123.95,50.725-98.787h4.013l1.7-9.215h3.536c3.468,0,5.271-.544,7.209-1.87a10.259,10.259,0,0,0,3.775-6.189,6.752,6.752,0,0,0-1.632-6.189c-1.292-1.19-2.856-1.7-6.767-1.7Zm3.367,3.536h3.332a6.467,6.467,0,0,1,3.842.816,3.374,3.374,0,0,1,1.19,3.6,5.1,5.1,0,0,1-2.482,3.6,7.93,7.93,0,0,1-4.081.85H57.084Z" transform="translate(172.134 123.983)" fill="#1f2e55"></path>
      </g>
    </g>
  </g>
</svg>
